<svg width="30" height="30" viewBox="0 0 30 30" fill="none" xmlns="http://www.w3.org/2000/svg">
<path d="M22.5 22.5C24.0563 23.03 25 23.7275 25 24.4913C25 26.1538 20.5225 27.5 15 27.5C9.4775 27.5 5 26.1525 5 24.4913C5 23.7275 5.94375 23.03 7.5 22.5M18.75 11.875C18.75 12.8696 18.3549 13.8234 17.6517 14.5267C16.9484 15.2299 15.9946 15.625 15 15.625C14.0054 15.625 13.0516 15.2299 12.3483 14.5267C11.6451 13.8234 11.25 12.8696 11.25 11.875C11.25 10.8804 11.6451 9.92661 12.3483 9.22335C13.0516 8.52009 14.0054 8.125 15 8.125C15.9946 8.125 16.9484 8.52009 17.6517 9.22335C18.3549 9.92661 18.75 10.8804 18.75 11.875Z" stroke="#E64B3B" stroke-width="1.5" stroke-linecap="round" stroke-linejoin="round"/>
<path d="M15 2.5C20.0738 2.5 24.375 6.785 24.375 11.9837C24.375 17.265 20.0037 20.9712 15.9662 23.4912C15.6723 23.6604 15.3391 23.7494 15 23.7494C14.6609 23.7494 14.3277 23.6604 14.0338 23.4912C10.0038 20.9462 5.625 17.2837 5.625 11.9837C5.625 6.785 9.92625 2.5 15 2.5Z" stroke="#E64B3B" stroke-width="1.5" stroke-linecap="round" stroke-linejoin="round"/>
</svg>
