<svg width="65" height="65" viewBox="0 0 65 65" fill="none" xmlns="http://www.w3.org/2000/svg">
<path d="M30.9975 24.1755L23.9779 23.1556L20.8386 16.7946C20.6727 16.4584 20.3303 16.2457 19.9555 16.2457C19.5806 16.2457 19.2382 16.4586 19.0724 16.7946L15.9331 23.1556L8.91351 24.1755C8.54255 24.2295 8.23431 24.4894 8.11853 24.8459C8.00262 25.2023 8.09923 25.5939 8.36773 25.8554L13.4471 30.8067L12.2481 37.798C12.1847 38.1676 12.3365 38.5409 12.6398 38.7613C12.9433 38.9817 13.3453 39.0108 13.677 38.8362L19.9556 35.5354L26.2342 38.8362C26.3783 38.912 26.5357 38.9493 26.6924 38.9493C26.8967 38.9493 27.0998 38.8859 27.2714 38.7612C27.5747 38.5409 27.7266 38.1674 27.6632 37.7979L26.464 30.8066L31.5435 25.8554C31.812 25.5937 31.9085 25.2023 31.7927 24.8457C31.6767 24.4892 31.3686 24.2294 30.9975 24.1755ZM24.7183 29.7575C24.4862 29.9838 24.3802 30.3098 24.435 30.6292L25.3844 36.1641L20.4138 33.5509C20.1269 33.4001 19.7841 33.4001 19.4972 33.5509L14.5266 36.1641L15.476 30.6292C15.5308 30.3097 15.4248 29.9838 15.1927 29.7575L11.1715 25.8377L16.7287 25.0302C17.0496 24.9836 17.3268 24.7821 17.4703 24.4915L19.9556 19.4557L22.4409 24.4915C22.5843 24.7821 22.8616 24.9836 23.1824 25.0302L28.7396 25.8377L24.7183 29.7575ZM58.5352 5.17676H6.46471C2.90012 5.17676 0 8.07687 0 11.6416V57.467C0 58.4271 0.574209 59.2827 1.46275 59.6463C1.7536 59.7653 2.05728 59.8231 2.3579 59.8231C2.97591 59.8231 3.58097 59.5785 4.03381 59.118L10.7858 52.2519C11.8812 51.138 13.4054 50.499 14.9676 50.499H58.5352C62.0999 50.499 65 47.5989 65 44.0342V11.6416C65 8.07687 62.0999 5.17676 58.5352 5.17676ZM63.0303 44.0343C63.0303 46.513 61.0138 48.5293 58.5352 48.5293H14.9676C12.8807 48.5293 10.8446 49.3829 9.38133 50.8709L2.62945 57.737C2.47165 57.8975 2.29836 57.86 2.20898 57.8235C2.11961 57.7869 1.9698 57.6919 1.9698 57.467V11.6416C1.9698 9.16296 3.98633 7.14644 6.46483 7.14644H58.5353C61.0139 7.14644 63.0304 9.16296 63.0304 11.6416V44.0343H63.0303ZM55.8638 19.3687H37.4027C36.8587 19.3687 36.4178 19.8096 36.4178 20.3536C36.4178 20.8976 36.8587 21.3385 37.4027 21.3385H55.8638C56.4078 21.3385 56.8487 20.8976 56.8487 20.3536C56.8486 19.8098 56.4077 19.3687 55.8638 19.3687ZM55.8638 26.7956H37.4027C36.8587 26.7956 36.4178 27.2365 36.4178 27.7805C36.4178 28.3244 36.8587 28.7654 37.4027 28.7654H55.8638C56.4078 28.7654 56.8487 28.3245 56.8487 27.7805C56.8486 27.2365 56.4077 26.7956 55.8638 26.7956ZM55.8638 34.2225H37.4027C36.8587 34.2225 36.4178 34.6634 36.4178 35.2074C36.4178 35.7514 36.8587 36.1923 37.4027 36.1923H55.8638C56.4078 36.1923 56.8487 35.7514 56.8487 35.2074C56.8486 34.6634 56.4077 34.2225 55.8638 34.2225Z" fill="#E64B3B"/>
</svg>
