<svg width="55" height="39" viewBox="0 0 55 39" fill="none" xmlns="http://www.w3.org/2000/svg">
<g clip-path="url(#clip0_74_80)">
<path d="M53.7853 6.08292C53.4698 4.90719 52.8545 3.83531 52.0005 2.97403C51.1465 2.11274 50.0836 1.4921 48.9178 1.1739C44.6497 0 27.4721 0 27.4721 0C27.4721 0 10.2936 0.0355332 6.02555 1.20943C4.8597 1.52765 3.79685 2.14833 2.94285 3.00965C2.08885 3.87098 1.47349 4.9429 1.15805 6.11867C-0.132947 13.7666 -0.633748 25.4202 1.1935 32.7622C1.50897 33.9379 2.12434 35.0098 2.97834 35.8711C3.83235 36.7323 4.89517 37.353 6.061 37.6712C10.3291 38.8451 27.5071 38.8451 27.5071 38.8451C27.5071 38.8451 44.685 38.8451 48.9528 37.6712C50.1187 37.353 51.1816 36.7324 52.0356 35.8711C52.8897 35.0098 53.5051 33.9379 53.8205 32.7622C55.1822 25.1034 55.6018 13.457 53.7853 6.08292Z" fill="#FF0000"/>
<path d="M22.0045 27.7464L36.2547 19.4225L22.0045 11.0986V27.7464Z" fill="white"/>
</g>
<defs>
<clipPath id="clip0_74_80">
<rect width="55" height="39" fill="white"/>
</clipPath>
</defs>
</svg>
