<svg width="31" height="31" viewBox="0 0 31 31" fill="none" xmlns="http://www.w3.org/2000/svg">
<g clip-path="url(#clip0_2_47)">
<path d="M27.6924 5.92976H28.6502C28.9843 5.92976 29.2553 5.65881 29.2553 5.32469C29.2553 4.99057 28.9843 4.71962 28.6502 4.71962H26.3509C26.0168 4.71962 25.7459 4.99057 25.7459 5.32469V7.62396C25.7459 7.95808 26.0168 8.22904 26.3509 8.22904C26.6851 8.22904 26.956 7.95808 26.956 7.62396V6.9582C28.7919 9.41607 29.7899 12.3983 29.7899 15.5C29.7899 23.3795 23.3795 29.7899 15.5 29.7899C7.62051 29.7899 1.21014 23.3795 1.21014 15.5C1.21014 7.62051 7.62051 1.21014 15.5 1.21014C16.0827 1.21014 16.6692 1.24554 17.2433 1.3153C17.5746 1.35536 17.8767 1.11944 17.917 0.787682C17.9574 0.455982 17.7212 0.154293 17.3894 0.113995C16.767 0.0383615 16.1314 0 15.5 0C11.3598 0 7.46737 1.61227 4.53985 4.53985C1.61227 7.46737 0 11.3598 0 15.5C0 19.6402 1.61227 23.5326 4.53985 26.4601C7.46737 29.3877 11.3598 31 15.5 31C19.6402 31 23.5326 29.3877 26.4601 26.4601C29.3877 23.5326 31 19.6402 31 15.5C31 12.0063 29.8328 8.65222 27.6924 5.92976Z" fill="white"/>
<path d="M6.56335 9.13738C6.28096 8.95864 5.90721 9.04275 5.72841 9.32496C4.34709 11.5066 3.73561 14.1303 4.00662 16.7128C4.28163 19.3336 5.46121 21.8051 7.3281 23.6721C9.58109 25.925 12.5406 27.0516 15.5001 27.0516C18.4596 27.0516 21.419 25.9251 23.6721 23.6721C28.1781 19.166 28.1781 11.8341 23.6721 7.32816C21.808 5.46417 19.3406 4.28501 16.7241 4.00789C14.1464 3.7347 11.5255 4.3414 9.3448 5.71595C9.06205 5.89414 8.97741 6.26777 9.15554 6.55046C9.33373 6.83321 9.70736 6.91786 9.99005 6.73973C14.1008 4.14881 19.375 4.74257 22.8163 8.18385C26.8505 12.218 26.8505 18.7821 22.8163 22.8163C18.7822 26.8506 12.218 26.8506 8.18385 22.8163C4.79013 19.4226 4.18748 14.0209 6.75092 9.97238C6.9296 9.69 6.84568 9.31618 6.56335 9.13738Z" fill="white"/>
<path d="M23.366 16.1148H24.1122C24.4463 16.1148 24.7172 15.8439 24.7172 15.5097C24.7172 15.1756 24.4463 14.9047 24.1122 14.9047H23.366C23.0319 14.9047 22.7609 15.1756 22.7609 15.5097C22.7609 15.8439 23.0318 16.1148 23.366 16.1148Z" fill="white"/>
<path d="M6.28271 15.4902C6.28271 15.8243 6.55367 16.0953 6.88779 16.0953H7.63396C7.96808 16.0953 8.23903 15.8243 8.23903 15.4902C8.23903 15.1561 7.96808 14.8851 7.63396 14.8851H6.88779C6.55367 14.8851 6.28271 15.156 6.28271 15.4902Z" fill="white"/>
<path d="M16.1149 7.63408V6.88791C16.1149 6.55379 15.844 6.28284 15.5099 6.28284C15.1757 6.28284 14.9048 6.55379 14.9048 6.88791V7.63408C14.9048 7.9682 15.1757 8.23915 15.5099 8.23915C15.844 8.23915 16.1149 7.9682 16.1149 7.63408Z" fill="white"/>
<path d="M14.8851 23.3659V24.1121C14.8851 24.4462 15.156 24.7172 15.4901 24.7172C15.8243 24.7172 16.0952 24.4462 16.0952 24.1121V23.3659C16.0952 23.0318 15.8243 22.7609 15.4901 22.7609C15.156 22.7609 14.8851 23.0318 14.8851 23.3659Z" fill="white"/>
<path d="M12.4671 11.6113C12.2308 11.3751 11.8478 11.3751 11.6114 11.6113C11.3751 11.8476 11.3751 12.2308 11.6114 12.4671L13.662 14.5177C13.5049 14.8106 13.4155 15.145 13.4155 15.5C13.4155 16.6494 14.3506 17.5844 15.5 17.5844C16.6494 17.5844 17.5844 16.6494 17.5844 15.5C17.5844 15.145 17.495 14.8106 17.3379 14.5177L21.4756 10.3801C21.7119 10.1438 21.7119 9.76067 21.4756 9.52433C21.2393 9.28811 20.8562 9.28811 20.6198 9.52433L16.4822 13.662C16.1893 13.5049 15.8549 13.4155 15.5 13.4155C15.145 13.4155 14.8106 13.5049 14.5178 13.662L12.4671 11.6113ZM16.3743 15.5C16.3743 15.9821 15.9821 16.3743 15.5 16.3743C15.0178 16.3743 14.6256 15.9821 14.6256 15.5C14.6256 15.0178 15.0178 14.6256 15.5 14.6256C15.9821 14.6256 16.3743 15.0178 16.3743 15.5Z" fill="white"/>
<path d="M8.18349 8.18337C8.29664 8.07083 8.36132 7.91472 8.36132 7.75558C8.36132 7.59645 8.29664 7.44095 8.18349 7.3278C8.07095 7.21532 7.91538 7.15051 7.75571 7.15051C7.59657 7.15051 7.44046 7.21526 7.32792 7.3278C7.21544 7.44034 7.15063 7.59645 7.15063 7.75558C7.15063 7.91532 7.21538 8.07083 7.32792 8.18337C7.44046 8.29585 7.59657 8.36066 7.75571 8.36066C7.91538 8.36066 8.07095 8.29585 8.18349 8.18337Z" fill="white"/>
<path d="M19.6913 1.8078C19.8511 1.8078 20.0072 1.7436 20.1197 1.63051C20.2322 1.51797 20.2971 1.36241 20.2971 1.20273C20.2971 1.04359 20.2323 0.887486 20.1197 0.774942C20.0072 0.662459 19.8511 0.597656 19.6913 0.597656C19.5322 0.597656 19.3761 0.662399 19.2636 0.774942C19.151 0.887486 19.0862 1.04359 19.0862 1.20273C19.0862 1.36247 19.151 1.51797 19.2636 1.63051C19.3761 1.7436 19.5322 1.8078 19.6913 1.8078Z" fill="white"/>
</g>
<defs>
<clipPath id="clip0_2_47">
<rect width="31" height="31" fill="white"/>
</clipPath>
</defs>
</svg>
