<svg width="31" height="31" viewBox="0 0 31 31" fill="none" xmlns="http://www.w3.org/2000/svg">
<path d="M10.4596 15.4155C10.794 15.4155 11.0651 15.1444 11.0651 14.8101C11.0651 14.4757 10.794 14.2046 10.4596 14.2046C10.1252 14.2046 9.85413 14.4757 9.85413 14.8101C9.85413 15.1444 10.1252 15.4155 10.4596 15.4155Z" fill="white"/>
<path d="M15.0405 9.47571C13.1976 9.47571 11.5023 10.4027 10.5058 11.9555C10.3248 12.2375 10.4067 12.6128 10.6887 12.7937C10.9706 12.9746 11.3459 12.8928 11.5269 12.6108C12.2992 11.4074 13.6127 10.6889 15.0405 10.6889C17.3408 10.6889 19.2121 12.5603 19.2121 14.8605C19.2121 17.1607 17.3407 19.0321 15.0405 19.0321C13.5739 19.0321 12.2416 18.2836 11.4766 17.0298C11.3021 16.7438 10.9287 16.6534 10.6428 16.8279C10.3568 17.0025 10.2664 17.3757 10.4409 17.6618C11.4279 19.2795 13.1475 20.2454 15.0405 20.2454C18.0098 20.2454 20.4255 17.8297 20.4255 14.8604C20.4255 11.8912 18.0097 9.47571 15.0405 9.47571Z" fill="white"/>
<path d="M28.9633 20.6878L29.763 18.8228C29.895 18.5149 29.7524 18.1583 29.4446 18.0262L26.5983 16.8051C26.8014 15.6105 26.8168 14.4038 26.6441 13.2057L29.5186 12.0565C29.8296 11.9322 29.981 11.5793 29.8567 11.2682L28.2527 7.25216C28.193 7.10273 28.0764 6.98309 27.9285 6.91963C27.7806 6.85624 27.6136 6.85412 27.4641 6.91382L24.5893 8.06306C23.8882 7.07524 23.0451 6.21111 22.0744 5.48588L23.2954 2.63988C23.4275 2.332 23.285 1.97531 22.9772 1.8432L19.0036 0.137899C18.8557 0.0744454 18.6887 0.0723263 18.5393 0.132025C18.3899 0.191725 18.2703 0.308338 18.2068 0.456193L16.9857 3.30262C15.7902 3.09967 14.5831 3.08435 13.3852 3.25679L12.2359 0.3816C12.1116 0.0705099 11.7584 -0.0807968 11.4474 0.0434454L7.43141 1.64866C7.28198 1.70836 7.16246 1.82498 7.09901 1.97289C7.03562 2.12075 7.0335 2.2878 7.09326 2.43717L8.2425 5.31217C7.25686 6.01191 6.39291 6.85473 5.66581 7.82596L2.81925 6.60473C2.6714 6.54134 2.50441 6.53922 2.35492 6.59892C2.20549 6.65861 2.08591 6.77523 2.02252 6.92314L0.317819 10.8986C0.185766 11.2065 0.328354 11.5632 0.636235 11.6952L3.48242 12.9157C3.27929 14.1106 3.26415 15.3174 3.43713 16.5156L0.562247 17.6649C0.251218 17.7892 0.0997898 18.1422 0.224032 18.4533L1.82804 22.4687C1.88774 22.6181 2.00435 22.7377 2.15227 22.8011C2.30012 22.8646 2.46717 22.8667 2.6166 22.8069L5.49149 21.6577C6.19256 22.6456 7.03568 23.5098 8.00643 24.2354L6.78538 27.0815C6.65332 27.3894 6.79579 27.7461 7.10367 27.8782L11.0778 29.5835C11.2257 29.6468 11.3928 29.649 11.5422 29.5893C11.6916 29.5296 11.8112 29.4129 11.8746 29.2651L13.0953 26.4186C14.2917 26.6213 15.4986 26.6368 16.6956 26.4645L17.8449 29.3397C17.9397 29.577 18.1675 29.7213 18.4084 29.7213C18.4833 29.7213 18.5596 29.7074 18.6334 29.6779L20.3627 28.9867C21.4596 30.2209 23.0581 31 24.8354 31C28.1349 31 30.8193 28.3156 30.8193 25.0161C30.8193 23.3155 30.1062 21.7783 28.9633 20.6878ZM18.7464 28.3261L17.6411 25.5613C17.5336 25.2923 17.251 25.1367 16.966 25.1902C15.6025 25.4459 14.2198 25.4284 12.8564 25.1379C12.5729 25.0776 12.2866 25.2259 12.1724 25.4921L10.9987 28.2292L8.13957 27.0024L9.31388 24.2652C9.42819 23.9987 9.33797 23.6886 9.09863 23.5251C7.95 22.7402 6.9844 21.7505 6.22865 20.5835C6.07117 20.3401 5.76347 20.2424 5.49428 20.3499L2.72964 21.4551L1.57574 18.5664L4.34068 17.4611C4.60981 17.3535 4.76529 17.0705 4.71171 16.7856C4.45493 15.4203 4.4723 14.0381 4.76335 12.6773C4.82396 12.3939 4.67562 12.1072 4.40921 11.9929L1.67201 10.8191L2.89851 7.95892L5.63565 9.13316C5.90164 9.2473 6.21157 9.15744 6.37529 8.91853C7.16313 7.7685 8.15277 6.80314 9.31672 6.04915C9.56 5.89155 9.65784 5.58397 9.55025 5.31478L8.44503 2.55015L11.3344 1.39528L12.4396 4.16009C12.5471 4.42916 12.8299 4.5847 13.1148 4.53118C14.4797 4.27513 15.8623 4.29275 17.2241 4.58343C17.5076 4.64404 17.7941 4.49558 17.9083 4.22935L19.0826 1.49221L21.9412 2.71901L20.7668 5.45627C20.6525 5.72274 20.7427 6.03286 20.9822 6.19646C22.1307 6.98091 23.0963 7.97042 23.852 9.1374C24.0096 9.38074 24.3172 9.47859 24.5864 9.37099L27.351 8.26583L28.5049 11.1551L25.7406 12.2604C25.4715 12.3679 25.3161 12.6508 25.3696 12.9356C25.6259 14.301 25.6083 15.683 25.3173 17.0434C25.2567 17.3268 25.4051 17.6135 25.6713 17.7278L28.4087 18.9022L27.9714 19.922C27.0588 19.3581 25.9844 19.0322 24.8353 19.0322C21.5357 19.0322 18.8513 21.7166 18.8513 25.0161C18.8513 26.0903 19.136 27.0991 19.6335 27.9715L18.7464 28.3261ZM24.8354 29.7867C22.2048 29.7867 20.0647 27.6466 20.0647 25.0161C20.0647 22.3855 22.2048 20.2455 24.8354 20.2455C27.4659 20.2455 29.606 22.3855 29.606 25.0161C29.606 27.6466 27.4659 29.7867 24.8354 29.7867Z" fill="white"/>
<path d="M27.8896 22.8721C27.6368 22.6521 27.2536 22.6789 27.0338 22.9317L24.4108 25.9472L22.9273 24.618C22.6777 24.3944 22.2942 24.4155 22.0706 24.665C21.847 24.9145 21.8681 25.2981 22.1176 25.5217L24.0596 27.2617C24.1712 27.3617 24.3155 27.4165 24.4644 27.4165C24.4769 27.4165 24.4895 27.4162 24.5021 27.4153C24.6643 27.4053 24.8156 27.3305 24.9221 27.208L27.9492 23.728C28.1691 23.4752 28.1424 23.092 27.8896 22.8721Z" fill="white"/>
</svg>
