<svg width="31" height="31" viewBox="0 0 31 31" fill="none" xmlns="http://www.w3.org/2000/svg">
<path d="M28.6825 26.8016L25.0059 18.1531C26.3053 16.2829 27.0683 14.0132 27.0683 11.5684C27.0683 5.18958 21.8788 0 15.5 0C9.12125 0 3.93167 5.18958 3.93167 11.5684C3.93167 14.0132 4.69468 16.2828 5.99413 18.153L2.31749 26.8015C2.14148 27.2155 2.172 27.6128 2.40129 27.8918C2.63058 28.1707 3.01462 28.2775 3.45474 28.1851L6.26266 27.5947C6.59457 27.5249 7.0609 27.7232 7.24103 28.0106L8.76421 30.4423C8.98823 30.7998 9.30416 31 9.63959 31C9.66175 31 9.68403 30.9991 9.70637 30.9974C10.0664 30.9689 10.3737 30.7153 10.5497 30.3012L13.6582 22.9895C14.2582 23.0859 14.8732 23.1367 15.5 23.1367C16.1268 23.1367 16.7418 23.0859 17.3417 22.9895L20.4503 30.3012C20.6263 30.7152 20.9337 30.9689 21.2937 30.9974C21.316 30.9991 21.3383 31 21.3605 31C21.6958 31 22.0118 30.7998 22.2358 30.4423L23.7589 28.0106C23.9391 27.7231 24.4054 27.5247 24.7374 27.5947L27.5452 28.185C27.9854 28.2774 28.3694 28.1707 28.5987 27.8917C28.8279 27.6128 28.8585 27.2155 28.6825 26.8016ZM5.09749 26.8329L3.25203 27.2209C3.2358 27.2243 3.22115 27.2268 3.20801 27.2286C3.21237 27.2161 3.21758 27.2023 3.22418 27.1869L6.6837 19.0492C7.05436 19.4854 7.45664 19.8939 7.88706 20.2711L5.09749 26.8329ZM6.26592 26.6027L8.68574 20.9105C9.16751 21.2629 9.67713 21.5793 10.2112 21.855L7.91001 27.2679C7.51149 26.8215 6.86007 26.5565 6.26592 26.6027ZM9.64304 29.9158C9.63656 29.9311 9.63027 29.9446 9.62421 29.9564C9.6164 29.9456 9.60805 29.9333 9.59927 29.9193L8.55932 28.259L11.1059 22.2689C11.6117 22.4774 12.1352 22.6511 12.6738 22.787L9.64304 29.9158ZM15.5 22.1515C9.66441 22.1515 4.91688 17.404 4.91688 11.5684C4.91688 5.73287 9.66448 0.985217 15.5 0.985217C21.3355 0.985217 26.0832 5.73281 26.0832 11.5684C26.0832 17.404 21.3356 22.1515 15.5 22.1515ZM21.4007 29.9192C21.392 29.9333 21.3836 29.9456 21.3758 29.9563C21.3697 29.9445 21.3634 29.931 21.357 29.9157L18.3263 22.7868C18.8649 22.6511 19.3884 22.4773 19.8942 22.2688L22.4408 28.2589L21.4007 29.9192ZM23.09 27.2679L20.7889 21.855C21.3229 21.5793 21.8324 21.2629 22.3142 20.9106L24.7341 26.6027C24.1399 26.5562 23.4886 26.8214 23.09 27.2679ZM27.7479 27.2209L25.9025 26.8329L23.1128 20.2711C23.5434 19.894 23.9455 19.4855 24.3162 19.0493L27.7757 27.187C27.7823 27.2023 27.7875 27.2161 27.7918 27.2287C27.7788 27.2268 27.7641 27.2244 27.7479 27.2209Z" fill="white"/>
<path d="M15.5 5.33411C12.0624 5.33411 9.26566 8.13082 9.26566 11.5684C9.26566 15.006 12.0624 17.8027 15.5 17.8027C18.9376 17.8027 21.7344 15.006 21.7344 11.5684C21.7344 8.13082 18.9376 5.33411 15.5 5.33411ZM15.5 16.8175C12.6056 16.8175 10.2509 14.4628 10.2509 11.5685C10.2509 8.67411 12.6056 6.31938 15.5 6.31938C18.3944 6.31938 20.7492 8.67411 20.7492 11.5685C20.7492 14.4627 18.3944 16.8175 15.5 16.8175Z" fill="white"/>
<path d="M15.5 2.77722C10.6525 2.77722 6.70882 6.72088 6.70882 11.5684C6.70882 16.4158 10.6525 20.3595 15.5 20.3595C20.3475 20.3595 24.2912 16.4158 24.2912 11.5684C24.2912 6.72088 20.3475 2.77722 15.5 2.77722ZM15.5 19.3742C11.1957 19.3742 7.69398 15.8726 7.69398 11.5683C7.69398 7.2641 11.1957 3.76232 15.5 3.76232C19.8042 3.76232 23.306 7.26404 23.306 11.5683C23.306 15.8726 19.8042 19.3742 15.5 19.3742Z" fill="white"/>
</svg>
