<svg width="35" height="35" viewBox="0 0 35 35" fill="none" xmlns="http://www.w3.org/2000/svg">
<circle cx="17.5" cy="17.5" r="17.5" fill="#F5F5F5"/>
<path d="M23.043 12.582C23.043 13.3945 22.8672 14.0977 22.5156 14.6914C22.1719 15.2773 21.7109 15.7578 21.1328 16.1328C20.5625 16.5078 19.9375 16.7891 19.2578 16.9766V17.0469C20.625 17.2188 21.6797 17.6367 22.4219 18.3008C23.1719 18.957 23.5469 19.8906 23.5469 21.1016C23.5469 22.0391 23.2969 22.8984 22.7969 23.6797C22.2969 24.4531 21.5195 25.0742 20.4648 25.543C19.4102 26.0039 18.0547 26.2344 16.3984 26.2344C15.2891 26.2344 14.3438 26.1523 13.5625 25.9883C12.7812 25.8242 12.0234 25.5977 11.2891 25.3086V21.4648C12.0312 21.8477 12.793 22.1328 13.5742 22.3203C14.3633 22.5 15.082 22.5898 15.7305 22.5898C16.8555 22.5898 17.6211 22.4297 18.0273 22.1094C18.4414 21.7891 18.6484 21.3594 18.6484 20.8203C18.6484 20.4297 18.5508 20.0977 18.3555 19.8242C18.1602 19.5508 17.7969 19.3398 17.2656 19.1914C16.7422 19.043 15.9883 18.9688 15.0039 18.9688H13.9492V15.4883H15.0273C15.9023 15.4883 16.5938 15.4102 17.1016 15.2539C17.6172 15.0977 17.9883 14.8867 18.2148 14.6211C18.4414 14.3477 18.5547 14.0352 18.5547 13.6836C18.5547 13.2305 18.3789 12.8945 18.0273 12.6758C17.6758 12.457 17.2109 12.3477 16.6328 12.3477C16.1172 12.3477 15.6328 12.418 15.1797 12.5586C14.7266 12.6992 14.332 12.8555 13.9961 13.0273C13.6602 13.1992 13.4062 13.3398 13.2344 13.4492L11.3125 10.3555C12.0234 9.87109 12.8359 9.46094 13.75 9.125C14.6719 8.78906 15.875 8.62109 17.3594 8.62109C19.125 8.62109 20.5117 8.97266 21.5195 9.67578C22.5352 10.3789 23.043 11.3477 23.043 12.582Z" fill="#D8D8D8"/>
</svg>
