<svg width="35" height="35" viewBox="0 0 35 35" fill="none" xmlns="http://www.w3.org/2000/svg">
<circle cx="17.5" cy="17.5" r="17.5" fill="#F5F5F5"/>
<path d="M24.168 22.6836H22.2812V26H17.7109V22.6836H10.8789V19.2852L18.0039 8.86719H22.2812V19.2266H24.168V22.6836ZM17.7109 19.2266V17.2344C17.7109 17.0547 17.7148 16.8281 17.7227 16.5547C17.7305 16.2812 17.7383 16.0078 17.7461 15.7344C17.7617 15.4531 17.7734 15.2188 17.7812 15.0312C17.7969 14.8359 17.8086 14.7305 17.8164 14.7148H17.6875C17.5391 15.0664 17.4023 15.3594 17.2773 15.5938C17.1523 15.8203 16.9883 16.0898 16.7852 16.4023L14.8867 19.2266H17.7109Z" fill="#D8D8D8"/>
</svg>
