<svg width="55" height="55" viewBox="0 0 55 55" fill="none" xmlns="http://www.w3.org/2000/svg">
<path d="M27.5 1.7188C22.6168 1.70957 17.8325 3.09474 13.7096 5.71145L14.6326 7.16208C19.7317 3.92954 25.8585 2.72891 31.8006 3.79778C37.7426 4.86664 43.067 8.12712 46.7199 12.934C50.3729 17.7409 52.0884 23.7439 51.5269 29.7552C50.9654 35.7664 48.1678 41.3479 43.6877 45.3951C39.2076 49.4422 33.3716 51.6602 27.3343 51.6101C21.2971 51.5599 15.4987 49.2453 11.0865 45.1243C6.67424 41.0033 3.96972 35.3762 3.50811 29.3564C3.0465 23.3367 4.86143 17.3629 8.59375 12.6174V17.1875H10.3125V10.3125C10.3125 10.182 10.2827 10.0532 10.2254 9.93588C10.1682 9.81857 10.085 9.71584 9.98209 9.63549C9.87921 9.55514 9.75938 9.49929 9.63169 9.47216C9.504 9.44504 9.37181 9.44736 9.24516 9.47895L2.37016 11.1977L2.78609 12.8649L7.05805 11.7967C3.51274 16.4129 1.63384 22.093 1.72704 27.9129C1.82024 33.7327 3.88006 39.3497 7.57137 43.8501C11.2627 48.3504 16.3682 51.4693 22.0574 52.6992C27.7465 53.9291 33.6844 53.1976 38.905 50.6239C44.1257 48.0501 48.3217 43.7855 50.8105 38.5239C53.2994 33.2622 53.9345 27.3132 52.6125 21.6448C51.2906 15.9763 48.0894 10.922 43.5298 7.30408C38.9702 3.68619 33.3206 1.71767 27.5 1.7188Z" fill="#E64B3B"/>
<path d="M27.5 45.5469C31.0693 45.5469 34.5585 44.4884 37.5263 42.5054C40.4941 40.5224 42.8072 37.7039 44.1731 34.4062C45.5391 31.1086 45.8965 27.48 45.2001 23.9792C44.5038 20.4785 42.785 17.2628 40.2611 14.7389C37.7372 12.215 34.5215 10.4962 31.0208 9.7999C27.52 9.10356 23.8914 9.46094 20.5938 10.8269C17.2961 12.1928 14.4776 14.5059 12.4946 17.4737C10.5116 20.4415 9.45313 23.9307 9.45313 27.5C9.45858 32.2847 11.3617 36.8718 14.745 40.255C18.1282 43.6383 22.7153 45.5414 27.5 45.5469ZM27.5 11.1719C30.7294 11.1719 33.8863 12.1295 36.5714 13.9237C39.2566 15.7178 41.3494 18.2679 42.5852 21.2515C43.8211 24.2351 44.1444 27.5181 43.5144 30.6855C42.8844 33.8528 41.3293 36.7622 39.0457 39.0457C36.7622 41.3293 33.8528 42.8844 30.6855 43.5144C27.5181 44.1444 24.2351 43.8211 21.2515 42.5852C18.2679 41.3494 15.7178 39.2566 13.9237 36.5714C12.1295 33.8863 11.1719 30.7294 11.1719 27.5C11.1767 23.171 12.8985 19.0206 15.9595 15.9596C19.0206 12.8985 23.171 11.1767 27.5 11.1719Z" fill="#E64B3B"/>
<path d="M27.5 42.1094C30.3895 42.1094 33.214 41.2526 35.6165 39.6473C38.019 38.042 39.8916 35.7603 40.9973 33.0908C42.1031 30.4213 42.3924 27.4838 41.8287 24.6499C41.265 21.8159 39.8735 19.2128 37.8304 17.1696C35.7872 15.1265 33.1841 13.7351 30.3501 13.1713C27.5162 12.6076 24.5787 12.897 21.9092 14.0027C19.2397 15.1085 16.958 16.981 15.3527 19.3835C13.7475 21.786 12.8906 24.6105 12.8906 27.5C12.8949 31.3733 14.4355 35.0868 17.1744 37.8256C19.9132 40.5645 23.6267 42.1051 27.5 42.1094ZM27.5 14.6094C30.0495 14.6094 32.5418 15.3654 34.6616 16.7818C36.7815 18.1983 38.4337 20.2115 39.4094 22.567C40.385 24.9224 40.6403 27.5143 40.1429 30.0148C39.6455 32.5154 38.4178 34.8123 36.615 36.6151C34.8123 38.4178 32.5154 39.6456 30.0148 40.1429C27.5143 40.6403 24.9224 40.3851 22.567 39.4094C20.2115 38.4337 18.1983 36.7815 16.7818 34.6617C15.3654 32.5418 14.6094 30.0495 14.6094 27.5C14.6132 24.0824 15.9726 20.8059 18.3892 18.3892C20.8058 15.9726 24.0824 14.6132 27.5 14.6094Z" fill="#E64B3B"/>
<path d="M20.625 33.5156H26.6406V31.7969H21.4844V28.3594H25.7813C26.0092 28.3594 26.2278 28.2688 26.3889 28.1077C26.5501 27.9465 26.6406 27.7279 26.6406 27.5V22.3438C26.6406 22.1158 26.5501 21.8972 26.3889 21.7361C26.2278 21.5749 26.0092 21.4844 25.7813 21.4844H19.7656V23.2031H24.9219V26.6406H20.625C20.3971 26.6406 20.1785 26.7312 20.0173 26.8923C19.8562 27.0535 19.7656 27.2721 19.7656 27.5V32.6562C19.7656 32.8842 19.8562 33.1028 20.0173 33.2639C20.1785 33.4251 20.3971 33.5156 20.625 33.5156Z" fill="#E64B3B"/>
<path d="M28.3594 21.4844V27.5C28.3594 27.7279 28.4499 27.9465 28.6111 28.1077C28.7722 28.2688 28.9908 28.3594 29.2188 28.3594H33.5156V33.5156H35.2344V21.4844H33.5156V26.6406H30.0781V21.4844H28.3594Z" fill="#E64B3B"/>
<path d="M26.6406 16.3281H28.3594V18.0469H26.6406V16.3281Z" fill="#E64B3B"/>
<path d="M16.3281 26.6406H18.0469V28.3594H16.3281V26.6406Z" fill="#E64B3B"/>
<path d="M26.6406 36.9531H28.3594V38.6719H26.6406V36.9531Z" fill="#E64B3B"/>
<path d="M36.9531 26.6406H38.6719V28.3594H36.9531V26.6406Z" fill="#E64B3B"/>
</svg>
