<svg width="52" height="52" viewBox="0 0 52 52" fill="none" xmlns="http://www.w3.org/2000/svg">
<g clip-path="url(#clip0_82_8)">
<path d="M26 6.70947H4.19355C3.69032 6.70947 3.35484 7.04496 3.35484 7.54818V41.0966C3.35484 41.5998 3.69032 41.9353 4.19355 41.9353H26C26.5032 41.9353 26.8387 41.5998 26.8387 41.0966V7.54818C26.8387 7.04496 26.5032 6.70947 26 6.70947ZM5.03226 8.38689H10.5677L5.03226 13.9224V8.38689ZM5.03226 16.2708L12.9161 8.38689H17.2774L5.03226 20.6321V16.2708ZM25.1613 40.2579H5.03226V22.9804L19.6258 8.38689H25.1613V40.2579Z" fill="#E64B3B"/>
<path d="M15.0968 43.6128C13.671 43.6128 12.5806 44.7031 12.5806 46.1289C12.5806 47.5547 13.671 48.6451 15.0968 48.6451C16.5226 48.6451 17.6129 47.5547 17.6129 46.1289C17.6129 44.7031 16.5226 43.6128 15.0968 43.6128ZM15.0968 46.9676C14.5935 46.9676 14.2581 46.6321 14.2581 46.1289C14.2581 45.6257 14.5935 45.2902 15.0968 45.2902C15.6 45.2902 15.9355 45.6257 15.9355 46.1289C15.9355 46.6321 15.6 46.9676 15.0968 46.9676Z" fill="#E64B3B"/>
<path d="M18.4516 3.35498H11.7419V5.0324H18.4516V3.35498Z" fill="#E64B3B"/>
<path d="M48.6452 7.54839H31.871C31.2839 7.54839 30.6968 7.71613 30.1935 8.05161V3.35484C30.1935 1.50968 28.6839 0 26.8387 0H3.35484C1.50968 0 0 1.50968 0 3.35484V48.6452C0 50.4903 1.50968 52 3.35484 52H26.8387C28.6839 52 30.1935 50.4903 30.1935 48.6452V43.9484C30.6968 44.2839 31.2839 44.4516 31.871 44.4516H48.6452C50.4903 44.4516 52 42.9419 52 41.0968V10.9032C52 9.05806 50.4903 7.54839 48.6452 7.54839ZM28.5161 48.6452C28.5161 49.5677 27.7613 50.3226 26.8387 50.3226H3.35484C2.43226 50.3226 1.67742 49.5677 1.67742 48.6452V3.35484C1.67742 2.43226 2.43226 1.67742 3.35484 1.67742H26.8387C27.7613 1.67742 28.5161 2.43226 28.5161 3.35484V48.6452ZM45.2903 42.7742H31.871C30.9484 42.7742 30.1935 42.0194 30.1935 41.0968V10.9032C30.1935 9.98065 30.9484 9.22581 31.871 9.22581H45.2903V42.7742ZM50.3226 41.0968C50.3226 42.0194 49.5677 42.7742 48.6452 42.7742H46.9677V9.22581H48.6452C49.5677 9.22581 50.3226 9.98065 50.3226 10.9032V41.0968Z" fill="#E64B3B"/>
<path d="M42.7742 10.9033H39.4194C38.9161 10.9033 38.5806 11.2388 38.5806 11.742V40.2582C38.5806 40.7614 38.9161 41.0969 39.4194 41.0969H42.7742C43.2774 41.0969 43.6129 40.7614 43.6129 40.2582V11.742C43.6129 11.2388 43.2774 10.9033 42.7742 10.9033ZM41.9355 39.4194H40.2581V12.5807H41.9355V39.4194Z" fill="#E64B3B"/>
<path d="M33.5484 10.9033H31.871V12.5807H33.5484V10.9033Z" fill="#E64B3B"/>
<path d="M33.5484 14.2583H31.871V15.9357H33.5484V14.2583Z" fill="#E64B3B"/>
<path d="M33.5484 17.6128H31.871V19.2902H33.5484V17.6128Z" fill="#E64B3B"/>
<path d="M33.5484 20.9678H31.871V22.6452H33.5484V20.9678Z" fill="#E64B3B"/>
<path d="M33.5484 24.3228H31.871V27.6776H33.5484V24.3228Z" fill="#E64B3B"/>
<path d="M33.5484 29.355H31.871V32.7098H33.5484V29.355Z" fill="#E64B3B"/>
</g>
<defs>
<clipPath id="clip0_82_8">
<rect width="52" height="52" fill="white"/>
</clipPath>
</defs>
</svg>
