<svg width="33" height="33" viewBox="0 0 33 33" fill="none" xmlns="http://www.w3.org/2000/svg">
<path d="M16.4999 1.03125C13.7663 1.03182 11.0816 1.75664 8.71915 3.13193C6.35668 4.50723 4.40076 6.48389 3.05047 8.86074C1.70018 11.2376 1.00372 13.9298 1.032 16.6632C1.06027 19.3967 1.81226 22.0739 3.21142 24.4223C3.14097 24.5077 3.09991 24.6135 3.0943 24.724C3.08869 24.8346 3.11884 24.944 3.18029 25.036L3.76423 25.912L1.2815 27.4016C1.19225 27.4551 1.12129 27.5344 1.07795 27.6291C1.03462 27.7237 1.02093 27.8292 1.03869 27.9318C1.05646 28.0343 1.10484 28.1291 1.17747 28.2036C1.25011 28.2782 1.3436 28.329 1.44566 28.3494L3.58596 28.7774L3.44268 31.4252C3.43761 31.5187 3.4581 31.6118 3.50195 31.6946C3.54579 31.7773 3.61133 31.8465 3.69154 31.8948C3.77175 31.9431 3.8636 31.9687 3.95723 31.9687C4.05086 31.9688 4.14274 31.9433 4.22301 31.8951L8.1611 29.5297C10.6509 31.1222 13.5446 31.9685 16.5001 31.9685C19.4557 31.9685 22.3494 31.1222 24.8392 29.5297L28.7773 31.8951C28.8575 31.9433 28.9494 31.9688 29.043 31.9687C29.1367 31.9687 29.2285 31.9431 29.3087 31.8948C29.3889 31.8465 29.4545 31.7773 29.4983 31.6946C29.5422 31.6118 29.5627 31.5187 29.5576 31.4252L29.4143 28.7774L31.5546 28.3494C31.6567 28.329 31.7502 28.2782 31.8228 28.2036C31.8954 28.1291 31.9438 28.0343 31.9616 27.9318C31.9793 27.8292 31.9657 27.7237 31.9223 27.6291C31.879 27.5344 31.808 27.4551 31.7188 27.4016L29.2358 25.912L29.8198 25.036C29.8813 24.9439 29.9114 24.8345 29.9058 24.7239C29.9001 24.6133 29.859 24.5075 29.7885 24.4221C31.1882 22.0738 31.9405 19.3965 31.969 16.6629C31.9975 13.9292 31.3011 11.2368 29.9507 8.85986C28.6003 6.48287 26.6441 4.50617 24.2814 3.131C21.9187 1.75584 19.2337 1.03134 16.4999 1.03125ZM5.82448 24.2587C9.15609 22.6595 12.8044 21.8293 16.4999 21.8293C20.1954 21.8293 23.8437 22.6595 27.1753 24.2587L28.632 24.958L27.1442 27.1897C23.8017 25.6687 20.1721 24.8816 16.4998 24.8816C12.8275 24.8816 9.19784 25.6687 5.85535 27.1897L4.36764 24.958L5.82448 24.2587ZM16.4999 20.7981C13.5871 20.8021 10.6959 21.2982 7.94827 22.2652C6.79561 20.5639 6.18201 18.555 6.18741 16.5C6.18741 10.8136 10.8135 6.1875 16.4999 6.1875C22.1863 6.1875 26.8124 10.8136 26.8124 16.5C26.8173 18.5549 26.2037 20.5637 25.0512 22.2651C22.3037 21.2981 19.4126 20.8021 16.4999 20.7981ZM20.0687 26.176C17.7651 27.0247 15.2345 27.0247 12.931 26.176C15.2973 25.8252 17.7024 25.8252 20.0687 26.176ZM4.52491 30.5109L4.63977 28.3873C4.64648 28.2635 4.60836 28.1414 4.53237 28.0434C4.45639 27.9454 4.34763 27.8781 4.22604 27.8537L2.95573 27.5997L4.33696 26.771L5.24279 28.1298C5.31156 28.2329 5.41517 28.3078 5.53466 28.3408C5.65416 28.3738 5.78152 28.3626 5.89344 28.3093C6.23857 28.1449 6.58775 27.9889 6.941 27.8412L7.52108 28.7113L4.52491 30.5109ZM8.71926 28.663C8.70784 28.6373 8.69435 28.6125 8.67891 28.589L7.92249 27.4546C8.97576 27.0654 10.0542 26.7478 11.1503 26.5042C12.7963 27.3837 14.6337 27.8438 16.4999 27.8438C18.3661 27.8438 20.2035 27.3837 21.8495 26.5042C22.9457 26.7477 24.0241 27.0651 25.0774 27.4543L24.321 28.5886C24.3055 28.6122 24.2921 28.6369 24.2807 28.6626C21.9574 30.1479 19.2575 30.9371 16.5 30.9371C13.7425 30.9371 11.0426 30.1479 8.71933 28.6626L8.71926 28.663ZM30.0441 27.5995L28.7738 27.8535C28.6522 27.8779 28.5434 27.9452 28.4675 28.0432C28.3915 28.1412 28.3533 28.2633 28.3601 28.3871L28.4749 30.5107L25.4788 28.7113L26.0589 27.8412C26.4118 27.9892 26.761 28.1453 27.1064 28.3093C27.2184 28.3627 27.3458 28.3739 27.4654 28.3409C27.585 28.308 27.6886 28.233 27.7574 28.1298L28.6632 26.771L30.0441 27.5995ZM28.8796 23.9327L27.6216 23.3288C27.1035 23.0801 26.5769 22.8493 26.0417 22.6363C27.2228 20.808 27.8487 18.6766 27.8437 16.5C27.8437 10.245 22.7549 5.15625 16.4999 5.15625C10.2449 5.15625 5.15616 10.245 5.15616 16.5C5.1505 18.6767 5.77624 20.8084 6.95756 22.6366C6.4232 22.8497 5.89684 23.0805 5.37846 23.329L4.12079 23.9327C2.80611 21.7419 2.09635 19.2414 2.06399 16.6867C2.03163 14.1319 2.67782 11.6143 3.93658 9.39088C5.19534 7.16749 7.02159 5.31796 9.22885 4.03114C11.4361 2.74431 13.9453 2.06629 16.5003 2.06629C19.0553 2.06629 21.5645 2.74431 23.7718 4.03114C25.9791 5.31796 27.8053 7.16749 29.0641 9.39088C30.3228 11.6143 30.969 14.1319 30.9367 16.6867C30.9043 19.2414 30.1946 21.7419 28.8799 23.9327H28.8796Z" fill="white"/>
<path d="M21.3984 12.375H18.5625C18.4258 12.3748 18.2947 12.3205 18.1981 12.2238C18.1014 12.1271 18.047 11.9961 18.0469 11.8594V10.3125C18.0464 9.90239 17.8833 9.50921 17.5933 9.21922C17.3033 8.92923 16.9101 8.7661 16.5 8.76562H15.4687C15.332 8.76562 15.2008 8.81995 15.1041 8.91665C15.0074 9.01335 14.9531 9.1445 14.9531 9.28125V10.4178C14.9542 10.8073 14.878 11.1931 14.7289 11.553C14.5799 11.9128 14.3609 12.2395 14.0847 12.5142L13.7083 12.8906H10.8281C10.6914 12.8906 10.5602 12.9449 10.4635 13.0416C10.3668 13.1383 10.3125 13.2695 10.3125 13.4062V19.0781C10.3125 19.2149 10.3668 19.346 10.4635 19.4427C10.5602 19.5394 10.6914 19.5938 10.8281 19.5938H19.8516C20.0604 19.5938 20.2661 19.5431 20.4509 19.4461C20.6358 19.3491 20.7944 19.2086 20.9129 19.0367C21.0315 18.8648 21.1066 18.6667 21.1316 18.4594C21.1567 18.2521 21.131 18.0419 21.0568 17.8467C21.308 17.6878 21.4965 17.4471 21.5905 17.1652C21.6844 16.8833 21.6781 16.5776 21.5725 16.2998C21.8236 16.141 22.0121 15.9002 22.1061 15.6183C22.2 15.3364 22.1937 15.0307 22.0881 14.7529C22.3239 14.6035 22.5049 14.3815 22.6037 14.1204C22.7025 13.8593 22.7139 13.5732 22.6362 13.305C22.5584 13.0369 22.3957 12.8012 22.1725 12.6335C21.9493 12.4658 21.6776 12.3751 21.3984 12.375ZM11.3437 13.9219H13.4062V18.5625H11.3437V13.9219ZM21.3984 13.9219H20.8828C20.7461 13.9219 20.6149 13.9762 20.5182 14.0729C20.4215 14.1696 20.3672 14.3007 20.3672 14.4375C20.3672 14.5743 20.4215 14.7054 20.5182 14.8021C20.6149 14.8988 20.7461 14.9531 20.8828 14.9531C20.9512 14.9531 21.0168 14.9803 21.0651 15.0286C21.1135 15.077 21.1406 15.1426 21.1406 15.2109C21.1406 15.2793 21.1135 15.3449 21.0651 15.3932C21.0168 15.4416 20.9512 15.4688 20.8828 15.4688H20.3672C20.2304 15.4688 20.0993 15.5231 20.0026 15.6198C19.9059 15.7165 19.8516 15.8476 19.8516 15.9844C19.8516 16.1211 19.9059 16.2523 20.0026 16.349C20.0993 16.4457 20.2304 16.5 20.3672 16.5C20.4356 16.5 20.5011 16.5272 20.5495 16.5755C20.5978 16.6239 20.625 16.6894 20.625 16.7578C20.625 16.8262 20.5978 16.8918 20.5495 16.9401C20.5011 16.9885 20.4356 17.0156 20.3672 17.0156H19.8516C19.7148 17.0156 19.5837 17.0699 19.487 17.1666C19.3903 17.2633 19.3359 17.3945 19.3359 17.5312C19.3359 17.668 19.3903 17.7992 19.487 17.8959C19.5837 17.9926 19.7148 18.0469 19.8516 18.0469C19.9199 18.0469 19.9855 18.074 20.0339 18.1224C20.0822 18.1707 20.1094 18.2363 20.1094 18.3047C20.1094 18.3731 20.0822 18.4386 20.0339 18.487C19.9855 18.5353 19.9199 18.5625 19.8516 18.5625H14.4375V13.6198L14.814 13.2434C15.1862 12.8732 15.4813 12.4328 15.6822 11.9478C15.8831 11.4628 15.9858 10.9427 15.9844 10.4178V9.79688H16.5C16.6367 9.79703 16.7678 9.8514 16.8644 9.94807C16.9611 10.0447 17.0155 10.1758 17.0156 10.3125V11.8594C17.0161 12.2695 17.1792 12.6627 17.4692 12.9527C17.7592 13.2426 18.1524 13.4058 18.5625 13.4062H21.3984C21.4668 13.4062 21.5324 13.4334 21.5807 13.4818C21.6291 13.5301 21.6562 13.5957 21.6562 13.6641C21.6562 13.7324 21.6291 13.798 21.5807 13.8464C21.5324 13.8947 21.4668 13.9219 21.3984 13.9219Z" fill="white"/>
<path d="M15.4305 23.216L15.9075 23.5625L15.7253 24.1233C15.7126 24.1621 15.7126 24.204 15.7252 24.2428C15.7378 24.2817 15.7624 24.3156 15.7955 24.3396C15.8285 24.3636 15.8683 24.3765 15.9092 24.3765C15.95 24.3765 15.9898 24.3635 16.0229 24.3395L16.4998 23.993L16.9768 24.3395C17.0098 24.3635 17.0496 24.3765 17.0905 24.3765C17.1313 24.3765 17.1711 24.3636 17.2041 24.3396C17.2372 24.3156 17.2618 24.2817 17.2744 24.2428C17.287 24.204 17.287 24.1621 17.2743 24.1233L17.0921 23.5625L17.5691 23.216C17.6021 23.192 17.6267 23.1581 17.6393 23.1193C17.6519 23.0805 17.6519 23.0386 17.6393 22.9998C17.6267 22.961 17.6021 22.9271 17.5691 22.9031C17.5361 22.8791 17.4963 22.8662 17.4555 22.8662H16.8659L16.6837 22.3054C16.6711 22.2666 16.6465 22.2328 16.6134 22.2088C16.5804 22.1848 16.5406 22.1719 16.4998 22.1719C16.459 22.1719 16.4192 22.1848 16.3862 22.2088C16.3531 22.2328 16.3285 22.2666 16.3159 22.3054L16.1337 22.8662H15.5442C15.5033 22.8662 15.4636 22.8791 15.4305 22.9031C15.3975 22.9271 15.3729 22.961 15.3603 22.9998C15.3477 23.0386 15.3477 23.0805 15.3603 23.1193C15.3729 23.1581 15.3975 23.192 15.4305 23.216Z" fill="white"/>
<path d="M12.4551 23.5886L12.932 23.9352L12.7498 24.4959C12.7372 24.5348 12.7371 24.5766 12.7498 24.6155C12.7624 24.6543 12.787 24.6882 12.82 24.7122C12.8531 24.7362 12.8929 24.7492 12.9337 24.7492C12.9746 24.7491 13.0144 24.7362 13.0474 24.7122L13.5243 24.3656L14.0013 24.7122C14.0343 24.7362 14.0741 24.7491 14.115 24.7492C14.1558 24.7492 14.1956 24.7362 14.2287 24.7122C14.2617 24.6882 14.2863 24.6543 14.2989 24.6155C14.3115 24.5766 14.3115 24.5348 14.2989 24.4959L14.1167 23.9352L14.5936 23.5886C14.6267 23.5646 14.6512 23.5308 14.6639 23.492C14.6765 23.4531 14.6765 23.4113 14.6639 23.3725C14.6512 23.3336 14.6267 23.2998 14.5936 23.2758C14.5606 23.2518 14.5208 23.2389 14.48 23.2388H13.8904L13.7082 22.6781C13.6956 22.6393 13.671 22.6054 13.638 22.5814C13.605 22.5574 13.5652 22.5444 13.5243 22.5444C13.4835 22.5444 13.4437 22.5574 13.4106 22.5814C13.3776 22.6054 13.353 22.6393 13.3404 22.6781L13.1582 23.2388H12.5687C12.5279 23.2389 12.4881 23.2518 12.4551 23.2758C12.422 23.2998 12.3974 23.3336 12.3848 23.3725C12.3722 23.4113 12.3722 23.4531 12.3848 23.492C12.3974 23.5308 12.422 23.5646 12.4551 23.5886Z" fill="white"/>
<path d="M18.4062 23.5886L18.8832 23.9352L18.701 24.4959C18.6883 24.5348 18.6883 24.5766 18.7009 24.6155C18.7135 24.6543 18.7381 24.6882 18.7712 24.7122C18.8042 24.7362 18.844 24.7492 18.8849 24.7492C18.9257 24.7491 18.9655 24.7362 18.9986 24.7122L19.4755 24.3656L19.9525 24.7122C19.9855 24.7362 20.0253 24.7491 20.0662 24.7492C20.107 24.7492 20.1468 24.7362 20.1799 24.7122C20.2129 24.6882 20.2375 24.6543 20.2501 24.6155C20.2627 24.5766 20.2627 24.5348 20.2501 24.4959L20.0678 23.9352L20.5448 23.5886C20.5778 23.5646 20.6024 23.5308 20.615 23.4919C20.6277 23.4531 20.6277 23.4113 20.615 23.3724C20.6024 23.3336 20.5778 23.2998 20.5448 23.2758C20.5117 23.2518 20.4719 23.2388 20.4311 23.2388H19.8415L19.6594 22.6781C19.6468 22.6393 19.6222 22.6054 19.5892 22.5814C19.5561 22.5574 19.5163 22.5444 19.4755 22.5444C19.4346 22.5444 19.3948 22.5574 19.3618 22.5814C19.3288 22.6054 19.3042 22.6393 19.2916 22.6781L19.1094 23.2388H18.5199C18.479 23.2389 18.4393 23.2518 18.4062 23.2758C18.3732 23.2998 18.3486 23.3336 18.336 23.3725C18.3234 23.4113 18.3234 23.4531 18.336 23.492C18.3486 23.5308 18.3732 23.5646 18.4062 23.5886Z" fill="white"/>
</svg>
