<svg width="63" height="63" viewBox="0 0 63 63" fill="none" xmlns="http://www.w3.org/2000/svg">
<path d="M52.8806 10.8478H28.2023C24.5208 10.8478 21.5283 13.3087 21.5283 16.3307V18.6834H9.57797C6.19172 18.6834 3.44531 20.9475 3.44531 23.7332V39.3061C3.44531 42.0918 6.19172 44.3559 9.57797 44.3559H11.9602L20.0419 51.8864C20.2222 52.0583 20.4621 52.1536 20.7113 52.1522C20.8466 52.1546 20.981 52.1278 21.105 52.0734C21.2803 51.9954 21.4292 51.8685 21.534 51.7078C21.6388 51.5471 21.6949 51.3596 21.6956 51.1678V44.3559H31.8445C35.2308 44.3559 37.9772 42.0918 37.9772 39.3061V39.0797H39.5522V46.7184C39.5523 46.9116 39.6094 47.1005 39.7161 47.2616C39.8229 47.4226 39.9747 47.5487 40.1527 47.624C40.2729 47.6792 40.4043 47.7062 40.5366 47.7028C40.7866 47.7034 41.0283 47.6123 41.2158 47.4468L50.2031 39.0797H52.8806C56.5622 39.0797 59.5547 36.6187 59.5547 33.5868V16.3307C59.5547 13.3087 56.5622 10.8478 52.8806 10.8478ZM36.0084 39.3061C36.0084 40.9795 34.0987 42.3872 31.8445 42.3872H20.7113C20.4502 42.3872 20.1998 42.4909 20.0152 42.6755C19.8306 42.8601 19.7269 43.1105 19.7269 43.3715V48.9037L13.0134 42.6529C12.8319 42.483 12.5927 42.388 12.3441 42.3872H9.57797C7.28437 42.3872 5.41406 41.009 5.41406 39.3061V23.7332C5.41406 22.0401 7.28437 20.6522 9.57797 20.6522H21.5283V33.5868C21.5283 36.6187 24.5208 39.0797 28.2023 39.0797H36.0084V39.3061ZM57.5859 33.5868C57.5859 35.5261 55.4695 37.1109 52.8806 37.1109H49.8094C49.5623 37.1104 49.3237 37.2016 49.14 37.3668L41.5209 44.4642V38.0953C41.5223 37.9656 41.4977 37.837 41.4487 37.717C41.3997 37.597 41.3272 37.488 41.2356 37.3963C41.1439 37.3046 41.0348 37.2322 40.9148 37.1832C40.7948 37.1342 40.6662 37.1096 40.5366 37.1109H28.2023C25.6134 37.1109 23.497 35.5261 23.497 33.5868V16.3307C23.497 14.3915 25.6134 12.8165 28.2023 12.8165H52.8806C55.4695 12.8165 57.5859 14.3915 57.5859 16.3307V33.5868Z" fill="#E64B3B"/>
<path d="M30.6239 21.105C29.8952 21.106 29.1831 21.3229 28.5776 21.7283C27.9722 22.1338 27.5004 22.7096 27.222 23.383C26.9436 24.0564 26.871 24.7972 27.0134 25.5119C27.1558 26.2265 27.5068 26.8829 28.0221 27.3982C28.5373 27.9135 29.1938 28.2645 29.9084 28.4069C30.6231 28.5493 31.3639 28.4767 32.0373 28.1983C32.7107 27.9199 33.2865 27.4481 33.692 26.8426C34.0974 26.2371 34.3143 25.5251 34.3153 24.7964C34.315 23.8174 33.926 22.8787 33.2338 22.1865C32.5416 21.4942 31.6028 21.1052 30.6239 21.105ZM30.6239 26.5092C30.2841 26.5082 29.9523 26.4065 29.6704 26.217C29.3885 26.0274 29.1691 25.7585 29.04 25.4443C28.9108 25.13 28.8778 24.7845 28.9451 24.4515C29.0123 24.1185 29.1768 23.8129 29.4177 23.5734C29.6586 23.3338 29.9651 23.1711 30.2985 23.1058C30.6319 23.0405 30.9772 23.0755 31.2907 23.2064C31.6042 23.3373 31.8718 23.5582 32.0598 23.8412C32.2477 24.1243 32.3475 24.4567 32.3465 24.7964C32.3439 25.2516 32.1613 25.6872 31.8385 26.0081C31.5157 26.3291 31.0791 26.5092 30.6239 26.5092Z" fill="#E64B3B"/>
<path d="M40.5365 21.105C39.8078 21.106 39.0958 21.3229 38.4903 21.7283C37.8848 22.1338 37.4131 22.7096 37.1347 23.383C36.8562 24.0564 36.7837 24.7972 36.9261 25.5119C37.0685 26.2265 37.4195 26.8829 37.9347 27.3982C38.45 27.9135 39.1064 28.2645 39.8211 28.4069C40.5357 28.5493 41.2765 28.4767 41.9499 28.1983C42.6234 27.9199 43.1992 27.4481 43.6046 26.8426C44.0101 26.2371 44.227 25.5251 44.2279 24.7964C44.2281 24.3116 44.1327 23.8315 43.9472 23.3836C43.7618 22.9357 43.4899 22.5287 43.147 22.1859C42.8042 21.8431 42.3973 21.5712 41.9493 21.3857C41.5014 21.2002 41.0213 21.1049 40.5365 21.105ZM40.5365 26.5092C40.1968 26.5082 39.865 26.4065 39.5831 26.217C39.3011 26.0274 39.0817 25.7585 38.9526 25.4443C38.8235 25.13 38.7905 24.7845 38.8577 24.4515C38.9249 24.1185 39.0894 23.8129 39.3303 23.5734C39.5713 23.3338 39.8778 23.1711 40.2112 23.1058C40.5446 23.0405 40.8899 23.0755 41.2034 23.2064C41.5169 23.3373 41.7845 23.5582 41.9724 23.8412C42.1604 24.1243 42.2602 24.4567 42.2592 24.7964C42.2591 25.0221 42.2144 25.2456 42.1276 25.454C42.0409 25.6624 41.9138 25.8516 41.7538 26.0107C41.5937 26.1699 41.4038 26.2958 41.1949 26.3814C40.986 26.4669 40.7623 26.5104 40.5365 26.5092Z" fill="#E64B3B"/>
<path d="M50.4591 21.105C49.7304 21.106 49.0183 21.3229 48.4128 21.7283C47.8074 22.1338 47.3356 22.7096 47.0572 23.383C46.7788 24.0564 46.7062 24.7972 46.8486 25.5119C46.991 26.2265 47.342 26.8829 47.8573 27.3982C48.3725 27.9135 49.029 28.2645 49.7436 28.4069C50.4583 28.5493 51.1991 28.4767 51.8725 28.1983C52.5459 27.9199 53.1217 27.4481 53.5272 26.8426C53.9326 26.2371 54.1495 25.5251 54.1505 24.7964C54.1502 23.8174 53.7612 22.8787 53.069 22.1865C52.3768 21.4942 51.438 21.1052 50.4591 21.105ZM50.4591 26.5092C50.1194 26.5082 49.7875 26.4065 49.5056 26.217C49.2237 26.0274 49.0043 25.7585 48.8752 25.4443C48.746 25.13 48.713 24.7845 48.7803 24.4515C48.8475 24.1185 49.012 23.8129 49.2529 23.5734C49.4938 23.3338 49.8003 23.1711 50.1337 23.1058C50.4671 23.0405 50.8124 23.0755 51.1259 23.2064C51.4394 23.3373 51.707 23.5582 51.895 23.8412C52.0829 24.1243 52.1827 24.4567 52.1817 24.7964C52.1814 25.022 52.1365 25.2454 52.0496 25.4537C51.9628 25.6619 51.8357 25.851 51.6757 26.0101C51.5157 26.1692 51.3259 26.2952 51.1171 26.3809C50.9083 26.4665 50.6847 26.5101 50.4591 26.5092Z" fill="#E64B3B"/>
</svg>
