<svg width="65" height="65" viewBox="0 0 65 65" fill="none" xmlns="http://www.w3.org/2000/svg">
<g clip-path="url(#clip0_73_137)">
<path d="M60.6104 30.3192L55.5893 27.6822V25.4438C55.5893 24.0585 54.7607 22.8645 53.5739 22.3313L52.6396 16.2147C52.6377 16.2053 52.6362 16.1958 52.6347 16.1859C52.2692 14.1979 50.5394 12.7549 48.5216 12.7549H33.1518C30.8458 12.7549 28.9697 14.6346 28.9697 16.9451V23.8101L21.0485 17.3297C20.6409 16.9968 20.0413 17.0574 19.7086 17.4654C19.3758 17.8738 19.4368 18.4745 19.8439 18.8079L28.9692 26.2731V35.1847H19.8916L10.6537 17.6641C9.75609 15.8833 11.0489 14.6804 11.1932 14.5546C11.2002 14.5487 11.2066 14.5432 11.2131 14.5373C12.1593 13.6945 13.5573 13.6652 14.5377 14.4672L16.6577 16.2013C17.0653 16.5347 17.6654 16.4741 17.9977 16.0662C18.3299 15.6577 18.2694 15.057 17.8623 14.7236L15.7423 12.989C14.7683 12.1925 13.5583 11.8675 12.3924 12.0061C11.4769 11.1932 10.312 10.7485 9.07818 10.7485C6.31793 10.7485 4.07243 12.9984 4.07243 15.7641C4.07243 18.0025 5.54331 19.9026 7.56763 20.5455V30.2794C7.56763 30.8807 7.07965 31.3696 6.4791 31.3696C5.87904 31.3696 5.39107 30.8807 5.39107 30.2794V27.7304C5.39107 27.2037 4.96458 26.7764 4.43891 26.7764C3.91275 26.7764 3.48676 27.2037 3.48676 27.7304V30.2794C3.48676 31.9326 4.8292 33.2776 6.4791 33.2776C8.1295 33.2776 9.47193 31.9326 9.47193 30.2794V20.7627C9.67972 20.7468 9.88552 20.719 10.0888 20.6772L14.5704 29.1779C11.6113 31.4446 12.2029 34.8746 12.2476 35.1847H3.89043C1.74512 35.1847 0 36.9337 0 39.0827C0 42.0267 2.63925 42.7725 2.63925 42.7725C2.63925 47.4253 7.59639 46.9071 7.59639 46.9071C7.92964 51.0829 11.4253 54.3792 15.6773 54.3792C19.9287 54.3792 23.4244 51.0829 23.7577 46.9071H36.1094C36.4426 51.0829 39.9383 54.3792 44.1898 54.3792C48.4417 54.3792 51.9374 51.0829 52.2707 46.9071H59.5274C62.545 46.9071 64.9998 44.447 64.9998 41.4235V37.0286C65.0003 34.1109 63.2785 31.4819 60.6104 30.3192ZM63.0875 36.7414H59.1009C58.3297 36.7414 57.7024 36.1128 57.7024 35.3407C57.7024 34.568 58.3297 33.9395 59.1009 33.9395H62.1294C62.6933 34.7519 63.0335 35.7178 63.0875 36.7414ZM48.7824 25.4438V26.7769H44.5473C43.3557 26.7769 42.3857 25.805 42.3857 24.611V21.3644C42.3857 20.1704 43.3557 19.199 44.5473 19.199H51.1688L51.6096 22.0839C50.0068 22.3587 48.7824 23.7604 48.7824 25.4438ZM50.6867 25.4438C50.6867 24.6155 51.3592 23.9417 52.1859 23.9417C53.0126 23.9417 53.685 24.6155 53.685 25.4438V29.868C53.685 30.6963 53.0126 31.3701 52.1859 31.3701C51.3592 31.3701 50.6867 30.6963 50.6867 29.868V25.4438ZM9.07818 18.8715C7.36827 18.8715 5.97674 17.4778 5.97674 15.7641C5.97674 14.0508 7.36827 12.6566 9.07818 12.6566C9.48036 12.6566 9.87015 12.7331 10.2327 12.8787C6.95418 15.2538 9.1362 18.8701 9.1362 18.8701C9.11686 18.8706 9.09752 18.8715 9.07818 18.8715ZM15.4864 30.9145L17.7378 35.1847H14.1796C14.1166 34.8771 13.7016 32.2521 15.4864 30.9145ZM1.9043 39.0827C1.9043 37.9856 2.79546 37.0927 3.89043 37.0927H28.9697V41.0727H21.9183C20.4301 39.2755 18.1846 38.1287 15.6773 38.1287C13.1695 38.1287 10.9245 39.2755 9.43573 41.0727H3.89043C2.79546 41.0727 1.9043 40.1798 1.9043 39.0827ZM23.0966 42.9807H28.9692V44.9991H23.6893C23.5797 44.2915 23.3768 43.6152 23.0966 42.9807ZM4.54504 42.9807H8.25744C7.97725 43.6152 7.77492 44.2915 7.66483 44.9991H6.58274C5.46644 44.9991 4.55843 44.0957 4.54504 42.9807ZM15.6773 52.4711C12.2555 52.4711 9.47193 49.6817 9.47193 46.2537C9.47193 42.8257 12.2555 40.0367 15.6773 40.0367C19.0986 40.0367 21.8821 42.8257 21.8821 46.2537C21.8821 49.6822 19.0986 52.4711 15.6773 52.4711ZM59.5274 44.9991H52.2032C52.0069 43.7216 51.5095 42.5151 50.7363 41.4573C50.4259 41.0324 49.8298 40.94 49.4058 41.2516C48.9813 41.5626 48.8895 42.1599 49.2 42.5847C49.982 43.6545 50.3951 44.923 50.3951 46.2537C50.3951 49.6817 47.6116 52.4711 44.1903 52.4711C40.769 52.4711 37.9849 49.6817 37.9849 46.2537C37.9849 42.8257 40.769 40.0367 44.1903 40.0367C45.0284 40.0367 45.8412 40.2007 46.6049 40.5246C47.0894 40.7298 47.6483 40.5028 47.8531 40.0178C48.0579 39.5324 47.8313 38.9729 47.3468 38.7677C46.3465 38.3438 45.2848 38.1287 44.1903 38.1287C40.1446 38.1287 36.7818 41.1124 36.1778 44.9991H30.874V16.9451C30.874 15.6865 31.8956 14.663 33.1518 14.663H48.5216C50.9069 14.663 50.8772 17.2905 50.8772 17.2905H44.5473C42.3053 17.2905 40.4813 19.118 40.4813 21.3644V24.6105C40.4813 26.8569 42.3053 28.6845 44.5473 28.6845H48.7824V29.8675C48.7824 31.7482 50.3093 33.2776 52.1859 33.2776C54.0629 33.2776 55.5893 31.7482 55.5893 29.8675V29.8367L59.7575 32.026C59.7614 32.028 59.7659 32.0295 59.7699 32.0314C59.7699 32.0314 55.7981 31.4605 55.7981 35.3407C55.7981 37.1652 57.2799 38.6494 59.1009 38.6494H63.096V41.4235C63.096 43.3951 61.4951 44.9991 59.5274 44.9991Z" fill="#E64B3B"/>
<path d="M44.1903 41.9447C41.8188 41.9447 39.8892 43.8776 39.8892 46.2542C39.8892 48.6302 41.8188 50.5631 44.1903 50.5631C46.5617 50.5631 48.4908 48.6302 48.4908 46.2542C48.4908 43.8776 46.5617 41.9447 44.1903 41.9447ZM44.1903 48.6551C42.8687 48.6551 41.7935 47.5778 41.7935 46.2537C41.7935 44.93 42.8687 43.8527 44.1903 43.8527C45.5114 43.8527 46.5865 44.93 46.5865 46.2537C46.5865 47.5778 45.5114 48.6551 44.1903 48.6551Z" fill="#E64B3B"/>
<path d="M15.6773 41.9447C13.3058 41.9447 11.3762 43.8776 11.3762 46.2542C11.3762 48.6302 13.3058 50.5631 15.6773 50.5631C18.0487 50.5631 19.9778 48.6302 19.9778 46.2542C19.9778 43.8776 18.0487 41.9447 15.6773 41.9447ZM15.6773 48.6551C14.3557 48.6551 13.2805 47.5778 13.2805 46.2537C13.2805 44.93 14.3557 43.8527 15.6773 43.8527C16.9984 43.8527 18.0735 44.93 18.0735 46.2537C18.0735 47.5778 16.9984 48.6551 15.6773 48.6551Z" fill="#E64B3B"/>
</g>
<defs>
<clipPath id="clip0_73_137">
<rect width="65" height="65" fill="white"/>
</clipPath>
</defs>
</svg>
