<svg width="35" height="35" viewBox="0 0 35 35" fill="none" xmlns="http://www.w3.org/2000/svg">
<circle cx="17.5" cy="17.5" r="17.5" fill="#F5F5F5"/>
<path d="M23.6172 26H11.1836V22.9531L15.3672 18.7227C16.2344 17.8164 16.9062 17.0898 17.3828 16.543C17.8672 15.9961 18.207 15.5312 18.4023 15.1484C18.5977 14.7656 18.6953 14.3672 18.6953 13.9531C18.6953 13.4453 18.5312 13.0781 18.2031 12.8516C17.875 12.625 17.4883 12.5117 17.043 12.5117C16.5039 12.5117 15.957 12.668 15.4023 12.9805C14.8555 13.2852 14.2344 13.7383 13.5391 14.3398L10.9961 11.3633C11.5117 10.9023 12.0586 10.4648 12.6367 10.0508C13.2148 9.62891 13.8984 9.28516 14.6875 9.01953C15.4766 8.75391 16.4375 8.62109 17.5703 8.62109C18.7344 8.62109 19.7422 8.82422 20.5938 9.23047C21.4531 9.63672 22.1172 10.1953 22.5859 10.9062C23.0547 11.6094 23.2891 12.4102 23.2891 13.3086C23.2891 14.3008 23.1055 15.1875 22.7383 15.9688C22.3789 16.7422 21.8359 17.5195 21.1094 18.3008C20.3828 19.0742 19.4766 19.9531 18.3906 20.9375L17.1367 22.0625V22.1797H23.6172V26Z" fill="#D8D8D8"/>
</svg>
