<svg width="54" height="54" viewBox="0 0 54 54" fill="none" xmlns="http://www.w3.org/2000/svg">
<path d="M44.1 5.4H43.2V4.5C43.1969 2.01577 41.1842 0.00307618 38.7 0H9.89996C7.41573 0.00307618 5.40304 2.01577 5.39996 4.5V44.1C5.40304 46.5842 7.41573 48.5969 9.89996 48.6H10.8V49.5C10.803 51.9842 12.8157 53.9969 15.3 54H44.1C46.5842 53.9969 48.5969 51.9842 48.6 49.5V9.9C48.5969 7.41577 46.5842 5.40308 44.1 5.4ZM36 1.8V5.92734L34.8363 4.76367C34.4847 4.41255 33.9152 4.41255 33.5636 4.76367L32.4 5.92734V1.8H36ZM7.19996 44.1V4.5C7.19996 3.00894 8.4089 1.8 9.89996 1.8H30.6V8.1C30.6 8.46387 30.8192 8.79214 31.1554 8.93145C31.4916 9.07075 31.8788 8.99341 32.1363 8.73633L34.2 6.67266L36.2636 8.73633C36.5212 8.99341 36.9083 9.07075 37.2445 8.93145C37.5807 8.79214 37.8 8.46387 37.8 8.1V1.8H38.7C40.191 1.8 41.4 3.00894 41.4 4.5V44.1C41.4 45.5911 40.191 46.8 38.7 46.8H9.89996C8.4089 46.8 7.19996 45.5911 7.19996 44.1ZM46.8 49.5C46.8 50.9911 45.591 52.2 44.1 52.2H15.3C13.8089 52.2 12.6 50.9911 12.6 49.5V48.6H38.7C41.1842 48.5969 43.1969 46.5842 43.2 44.1V7.2H44.1C45.591 7.2 46.8 8.40894 46.8 9.9V49.5Z" fill="#E64B3B"/>
<path d="M19.738 8.6895C19.6084 8.33794 19.2748 8.10283 18.9 8.1002H11.7C11.203 8.1002 10.8 8.50317 10.8 9.0002V16.2002C10.8 16.6972 11.203 17.1002 11.7 17.1002H18.9C19.397 17.1002 19.8 16.6972 19.8 16.2002V11.1729L22.2363 8.73652L20.9637 7.46387L19.738 8.6895ZM18 15.3002H12.6V9.9002H18V10.4275L16.2 12.2275L15.0363 11.0639L13.7637 12.3365L15.5637 14.1365C15.9152 14.4876 16.4848 14.4876 16.8363 14.1365L18 12.9729V15.3002Z" fill="#E64B3B"/>
<path d="M20.9637 20.0635L19.738 21.2891C19.6084 20.9375 19.2748 20.7024 18.9 20.6998H11.7C11.203 20.6998 10.8 21.1028 10.8 21.5998V28.7998C10.8 29.2968 11.203 29.6998 11.7 29.6998H18.9C19.397 29.6998 19.8 29.2968 19.8 28.7998V23.7725L22.2363 21.3361L20.9637 20.0635ZM18 27.8998H12.6V22.4998H18V23.0271L16.2 24.8271L15.0363 23.6635L13.7637 24.9361L15.5637 26.7361C15.9152 27.0873 16.4848 27.0873 16.8363 26.7361L18 25.5725V27.8998Z" fill="#E64B3B"/>
<path d="M18.9 32.3999H11.7C11.203 32.3999 10.8 32.8029 10.8 33.2999V40.4999C10.8 40.9969 11.203 41.3999 11.7 41.3999H18.9C19.397 41.3999 19.8 40.9969 19.8 40.4999V33.2999C19.8 32.8029 19.397 32.3999 18.9 32.3999ZM18 39.5999H12.6V34.1999H18V39.5999Z" fill="#E64B3B"/>
<path d="M23.4 13.5H32.4V15.3H23.4V13.5Z" fill="#E64B3B"/>
<path d="M23.4 9.8999H28.8V11.6999H23.4V9.8999Z" fill="#E64B3B"/>
<path d="M23.4 26.1001H32.4V27.9001H23.4V26.1001Z" fill="#E64B3B"/>
<path d="M23.4 22.5H28.8V24.3H23.4V22.5Z" fill="#E64B3B"/>
<path d="M23.4 37.7998H32.4V39.5998H23.4V37.7998Z" fill="#E64B3B"/>
<path d="M23.4 34.2002H28.8V36.0002H23.4V34.2002Z" fill="#E64B3B"/>
<path d="M30.6 34.2002H32.4V36.0002H30.6V34.2002Z" fill="#E64B3B"/>
</svg>
