<svg width="56" height="56" viewBox="0 0 56 56" fill="none" xmlns="http://www.w3.org/2000/svg">
<g clip-path="url(#clip0_82_2)">
<path d="M33.1763 44.2954H22.8239C22.3708 44.2954 22.0035 44.6627 22.0035 45.1157C22.0035 45.5688 22.3708 45.936 22.8239 45.936H33.1763C33.6294 45.936 33.9966 45.5688 33.9966 45.1157C33.9966 44.6627 33.6293 44.2954 33.1763 44.2954Z" fill="#E64B3B"/>
<path d="M33.1763 40.249H22.8239C22.3708 40.249 22.0035 40.6163 22.0035 41.0693C22.0035 41.5224 22.3708 41.8896 22.8239 41.8896H33.1763C33.6294 41.8896 33.9966 41.5224 33.9966 41.0693C33.9966 40.6163 33.6293 40.249 33.1763 40.249Z" fill="#E64B3B"/>
<path d="M47.7991 8.20105C42.5105 2.91255 35.4791 0 28 0C17.6544 0 8.19055 5.67044 3.30159 14.7982C3.08766 15.1975 3.23805 15.6948 3.63738 15.9086C4.03659 16.1226 4.53381 15.9723 4.74775 15.5728C9.35069 6.97911 18.2604 1.64062 28 1.64062C35.0409 1.64062 41.6603 4.38244 46.6389 9.36108C51.6176 14.3398 54.3594 20.9592 54.3594 28C54.3594 35.0408 51.6176 41.6603 46.6388 46.6389C41.6603 51.6176 35.0409 54.3594 28 54.3594C20.9591 54.3594 14.3397 51.6176 9.36108 46.6389C4.38244 41.6603 1.64062 35.0409 1.64062 28C1.64062 24.8842 2.17864 21.835 3.23991 18.9368C3.39566 18.5113 3.17713 18.0402 2.75166 17.8845C2.32597 17.7285 1.85511 17.9472 1.69936 18.3727C0.571703 21.4522 0 24.6912 0 28C0 35.4791 2.91244 42.5105 8.20094 47.7991C13.4895 53.0875 20.5209 56 28 56C35.4791 56 42.5105 53.0875 47.7991 47.7991C53.0876 42.5106 56 35.4791 56 28C56 20.5209 53.0876 13.4895 47.7991 8.20105Z" fill="#E64B3B"/>
<path d="M45.7315 12.9659C47.0226 11.2251 44.8247 9.02521 43.083 10.3174C39.2128 13.188 35.5253 16.3686 32.1231 19.7711L28.2984 23.5957C25.6119 23.4178 23.3673 25.6429 23.5469 28.3472L22.0975 29.7966C20.952 30.9421 20.952 32.8059 22.0975 33.9513C23.2428 35.0967 25.1066 35.0968 26.2521 33.9513L27.7014 32.502C30.3895 32.6804 32.6325 30.4534 32.4531 27.7504L36.2778 23.9258C39.68 20.5234 42.8608 16.836 45.7315 12.9659ZM25.092 32.7912C24.5863 33.2969 23.7633 33.2969 23.2576 32.7912C22.7518 32.2853 22.7518 31.4625 23.2576 30.9566L24.0631 30.1511C24.48 30.9285 25.1201 31.5688 25.8976 31.9856L25.092 32.7912ZM28 30.8724C26.4464 30.8724 25.1765 29.6084 25.1765 28.0488C25.1765 26.4919 26.4431 25.2253 28 25.2253C29.406 25.2253 30.575 26.2583 30.7885 27.6052C30.7886 27.6056 30.7886 27.6062 30.7887 27.6066C31.0607 29.3287 29.7236 30.8724 28 30.8724ZM31.9368 25.9464C31.52 25.169 30.8797 24.5288 30.1023 24.112L33.2832 20.9311C36.6287 17.5856 40.2546 14.4579 44.0603 11.6351C44.2965 11.4602 44.5881 11.7532 44.4137 11.9885C41.5907 15.7941 38.4631 19.4201 35.1176 22.7657L31.9368 25.9464Z" fill="#E64B3B"/>
<path d="M40.4545 8.31999C31.5456 2.6699 19.4581 3.58263 11.506 11.5613C11.5058 11.5615 11.5055 11.5618 11.5053 11.562C2.44979 20.6486 2.44443 35.3531 11.5133 44.4444C11.5201 44.4517 11.5263 44.4595 11.5334 44.4666C15.9318 48.865 21.7797 51.2873 28 51.2873C34.1999 51.2873 40.0343 48.8787 44.4283 44.5049C44.4322 44.5011 44.4352 44.497 44.439 44.4931C52.4376 36.5205 53.2893 24.4619 47.725 15.6176C47.4836 15.234 46.9774 15.119 46.5938 15.3601C46.2103 15.6014 46.095 16.1078 46.3363 16.4913C48.3665 19.7182 49.4994 23.4176 49.6332 27.2345H46.3764C46.2712 24.6196 45.6255 22.1132 44.4526 19.7728C44.2497 19.3677 43.7573 19.2038 43.3518 19.4069C42.9468 19.6098 42.783 20.1027 42.9859 20.5078C46.0939 26.7105 45.1351 34.5848 39.8091 39.8797C39.4874 40.1996 39.4865 40.7206 39.8074 41.0415L42.6762 43.9103C38.6671 47.6149 33.4881 49.6468 27.9999 49.6468C22.5097 49.6468 17.3324 47.6155 13.3235 43.9104L16.1924 41.0415C16.5132 40.7207 16.5127 40.1997 16.1907 39.8797C9.61319 33.3404 9.61002 22.7294 16.1291 16.1816C21.4231 10.8646 29.3091 9.88296 35.5558 13.0458C35.6746 13.1059 35.8011 13.1344 35.9258 13.1344C36.2251 13.1344 36.5138 12.9699 36.6582 12.6844C36.8629 12.2802 36.7011 11.7866 36.2969 11.582C33.9535 10.3955 31.442 9.73891 28.8201 9.62593V6.36874C32.6454 6.51235 36.3478 7.65849 39.5756 9.70555C39.958 9.94815 40.4649 9.83473 40.7077 9.45213C40.9506 9.06943 40.8371 8.56259 40.4545 8.31999ZM46.3703 28.8751H49.6274C49.422 34.0746 47.3908 38.9481 43.8398 42.7536L41.5365 40.4503C44.4748 37.2623 46.1687 33.2053 46.3703 28.8751ZM27.1797 6.36984V9.62659C22.8336 9.81591 18.7608 11.5075 15.5594 14.4542L13.256 12.1509C17.0745 8.5919 21.9641 6.56277 27.1797 6.36984ZM14.4634 40.4503L12.1602 42.7536C8.60924 38.9482 6.57804 34.0747 6.37263 28.8751H9.62971C9.83129 33.2052 11.5252 37.2623 14.4634 40.4503ZM9.6238 27.2344H6.36651C6.54654 22.0268 8.56122 17.1376 12.0992 13.3139L14.4022 15.6169C11.4764 18.8232 9.80044 22.8964 9.6238 27.2344Z" fill="#E64B3B"/>
</g>
<defs>
<clipPath id="clip0_82_2">
<rect width="56" height="56" fill="white"/>
</clipPath>
</defs>
</svg>
