<svg width="30" height="30" viewBox="0 0 30 30" fill="none" xmlns="http://www.w3.org/2000/svg">
<circle cx="15" cy="15" r="15" fill="#E64B3B"/>
<path d="M20.8125 22.4062H20.7222C10.2831 21.8059 8.80093 12.9978 8.59374 10.3097C8.57705 10.1007 8.60176 9.89044 8.66646 9.691C8.73116 9.49156 8.83457 9.30685 8.97078 9.14745C9.10699 8.98804 9.27331 8.85708 9.46022 8.76207C9.64713 8.66706 9.85094 8.60986 10.06 8.59375H12.9872C13.2 8.59354 13.4079 8.65724 13.5841 8.77659C13.7603 8.89593 13.8966 9.06543 13.9753 9.26313L14.7828 11.25C14.8606 11.4431 14.8799 11.6549 14.8383 11.8589C14.7967 12.0629 14.6962 12.2502 14.5491 12.3975L13.4175 13.5397C13.5943 14.5441 14.0753 15.4701 14.7955 16.1922C15.5157 16.9143 16.4404 17.3978 17.4444 17.5772L18.5972 16.435C18.7467 16.2895 18.9358 16.1913 19.1408 16.1526C19.3458 16.1138 19.5577 16.1363 19.75 16.2172L21.7528 17.0194C21.9475 17.1006 22.1136 17.2379 22.23 17.4139C22.3464 17.5899 22.4077 17.7965 22.4062 18.0075V20.8125C22.4062 21.2352 22.2383 21.6406 21.9394 21.9395C21.6406 22.2383 21.2352 22.4062 20.8125 22.4062ZM10.1875 9.65625C10.0466 9.65625 9.91147 9.71222 9.81184 9.81185C9.71222 9.91148 9.65624 10.0466 9.65624 10.1875V10.23C9.90062 13.375 11.4678 20.8125 20.7806 21.3438C20.8504 21.3481 20.9204 21.3386 20.9865 21.3158C21.0526 21.293 21.1136 21.2574 21.1659 21.211C21.2182 21.1646 21.2608 21.1083 21.2914 21.0454C21.3219 20.9825 21.3397 20.9142 21.3437 20.8444V18.0075L19.3409 17.2053L17.8162 18.7194L17.5612 18.6875C12.9394 18.1084 12.3125 13.4866 12.3125 13.4388L12.2806 13.1838L13.7894 11.6591L12.9925 9.65625H10.1875Z" fill="white"/>
</svg>
