<svg width="15" height="15" viewBox="0 0 15 15" fill="none" xmlns="http://www.w3.org/2000/svg">
<path fill-rule="evenodd" clip-rule="evenodd" d="M7.5 14.625C8.43567 14.625 9.36217 14.4407 10.2266 14.0826C11.0911 13.7246 11.8765 13.1998 12.5381 12.5381C13.1998 11.8765 13.7246 11.0911 14.0826 10.2266C14.4407 9.36217 14.625 8.43567 14.625 7.5C14.625 6.56433 14.4407 5.63783 14.0826 4.77338C13.7246 3.90894 13.1998 3.12348 12.5381 2.46186C11.8765 1.80025 11.0911 1.27542 10.2266 0.917358C9.36217 0.559293 8.43567 0.375 7.5 0.375C5.61033 0.375 3.79806 1.12567 2.46186 2.46186C1.12567 3.79806 0.375 5.61033 0.375 7.5C0.375 9.38967 1.12567 11.2019 2.46186 12.5381C3.79806 13.8743 5.61033 14.625 7.5 14.625ZM11.2747 5.63167C11.3442 5.55222 11.3971 5.45967 11.4303 5.35947C11.4635 5.25926 11.4763 5.15343 11.468 5.0482C11.4598 4.94296 11.4305 4.84045 11.382 4.74669C11.3335 4.65292 11.2667 4.56981 11.1856 4.50223C11.1045 4.43465 11.0108 4.38397 10.9098 4.35317C10.8088 4.32238 10.7027 4.31209 10.5977 4.32291C10.4927 4.33372 10.3909 4.36543 10.2983 4.41617C10.2058 4.4669 10.1243 4.53564 10.0587 4.61833L7.21025 8.03596C6.93554 8.36529 6.78117 8.54817 6.65846 8.65979L6.65371 8.66454L6.64817 8.66058C6.51517 8.56004 6.34496 8.39221 6.04254 8.089L4.89304 6.94029C4.74373 6.79608 4.54376 6.71629 4.33618 6.71809C4.12861 6.7199 3.93005 6.80315 3.78327 6.94994C3.63649 7.09672 3.55323 7.29528 3.55142 7.50285C3.54962 7.71042 3.62942 7.9104 3.77363 8.05971L4.92233 9.20842L4.95479 9.24088C5.21367 9.49975 5.46146 9.74833 5.69342 9.92329C5.95229 10.1196 6.29192 10.3033 6.72654 10.2843C7.16196 10.2645 7.48338 10.05 7.72404 9.83146C7.93779 9.63592 8.16342 9.36596 8.39696 9.08492L8.42625 9.05008L11.2747 5.63167Z" fill="#46A836"/>
</svg>
