<svg width="30" height="30" viewBox="0 0 30 30" fill="none" xmlns="http://www.w3.org/2000/svg">
<circle cx="15" cy="15" r="15" fill="#64A9DC"/>
<path d="M20.5322 8.74087C20.5322 8.74087 21.9892 8.17275 21.8678 9.55248C21.8273 10.1206 21.4631 12.109 21.1798 14.2598L20.2085 20.631C20.2085 20.631 20.1275 21.5643 19.399 21.7266C18.6705 21.8889 17.5778 21.1585 17.3754 20.9962C17.2135 20.8744 14.34 19.0483 13.3282 18.1556C13.0449 17.9121 12.7211 17.4251 13.3687 16.857L17.6183 12.7989C18.1039 12.312 18.5896 11.1757 16.566 12.5554L10.8999 16.4106C10.8999 16.4106 10.2524 16.8164 9.03823 16.4512L6.40753 15.6396C6.40753 15.6396 5.4362 15.0309 7.09556 14.4221C11.1428 12.5148 16.1208 10.567 20.5322 8.74087Z" fill="white"/>
</svg>
