<svg width="30" height="30" viewBox="0 0 30 30" fill="none" xmlns="http://www.w3.org/2000/svg">
<circle cx="15" cy="15" r="15" fill="#65BC54"/>
<g clip-path="url(#clip0_6_527)">
<path d="M17.1806 15.8067C17.5411 15.9201 17.8865 16.0768 18.2093 16.2733L18.1886 16.2613C18.5413 16.418 18.846 16.6013 19.124 16.8167L19.114 16.8093C19.1273 16.85 19.1353 16.896 19.1353 16.9447L19.1346 16.966V16.9653C19.1246 17.2513 19.0613 17.52 18.954 17.7647L18.9593 17.7507C18.8053 18.0593 18.5486 18.2973 18.2346 18.424L18.2253 18.4273C17.9004 18.5972 17.5411 18.6909 17.1746 18.7013H17.1706C16.4711 18.6114 15.7951 18.3892 15.1786 18.0467L15.2073 18.0613C14.5525 17.7647 13.957 17.3515 13.45 16.842L13.4493 16.8413C12.8962 16.2655 12.3947 15.6422 11.9506 14.9787L11.9193 14.9293C11.4786 14.3532 11.2229 13.657 11.186 12.9327L11.1853 12.924V12.8413C11.1951 12.5319 11.2677 12.2277 11.3989 11.9472C11.53 11.6668 11.7168 11.4159 11.948 11.21L11.95 11.208C12.0928 11.0657 12.2851 10.9842 12.4866 10.9807H12.4873C12.5546 10.9827 12.6193 10.988 12.682 10.9973L12.6733 10.996C12.7313 11.0047 12.7986 11.01 12.868 11.0113H12.87C12.967 11.0019 13.0644 11.0259 13.146 11.0793L13.1446 11.0787C13.216 11.1573 13.2706 11.2527 13.3033 11.3573L13.3046 11.3627C13.3597 11.5004 13.4735 11.8035 13.646 12.272C13.736 12.4813 13.824 12.7393 13.8946 13.0047L13.904 13.0467C13.8559 13.2787 13.7306 13.4876 13.5486 13.6393L13.5466 13.6407C13.3089 13.8922 13.19 14.0522 13.19 14.1207C13.1925 14.1768 13.2113 14.231 13.244 14.2767L13.2433 14.276C13.5011 14.809 13.8576 15.2884 14.294 15.6887L14.2973 15.692C14.7541 16.1035 15.2661 16.449 15.8186 16.7187L15.858 16.736C15.9255 16.7798 16.0035 16.8049 16.084 16.8087H16.0853C16.1889 16.8087 16.3751 16.6415 16.644 16.3073C16.9129 15.9731 17.0915 15.806 17.18 15.806L17.1806 15.8067ZM15.0826 21.284H15.0973C15.9727 21.2852 16.8387 21.1038 17.64 20.7513L17.5993 20.7673C19.17 20.1047 20.3946 18.88 21.0413 17.3513L21.0573 17.3093C21.384 16.5673 21.574 15.702 21.574 14.7927C21.574 13.8833 21.384 13.018 21.0413 12.2347L21.0573 12.276C20.3946 10.7053 19.17 9.48065 17.6413 8.83398L17.5993 8.81798C16.8573 8.49132 15.992 8.30132 15.0826 8.30132C14.1733 8.30132 13.308 8.49132 12.5246 8.83398L12.566 8.81798C10.9953 9.48065 9.77063 10.7053 9.12396 12.234L9.10796 12.276C8.76423 13.0731 8.58836 13.9325 8.5913 14.8007C8.58914 16.1732 9.02831 17.5101 9.84396 18.614L9.8313 18.5967L9.01463 21.0053L11.516 20.2093C12.5609 20.9131 13.7928 21.2874 15.0526 21.284H15.084H15.0826ZM15.0826 6.99998H15.1046C16.19 6.99998 17.222 7.22798 18.1546 7.63932L18.106 7.61998C19.9893 8.41798 21.458 9.88665 22.2366 11.7193L22.256 11.77C22.648 12.6613 22.876 13.7007 22.876 14.7933C22.876 15.886 22.648 16.9253 22.2366 17.866L22.256 17.8167C21.458 19.7 19.9893 21.1687 18.1566 21.9473L18.106 21.9667C17.2213 22.3587 16.1893 22.5867 15.104 22.5867H15.0813H15.0826H15.0473C13.6746 22.5867 12.386 22.226 11.2713 21.5947L11.3093 21.6147L6.9993 23L8.4053 18.814C7.67137 17.6067 7.28517 16.2202 7.2893 14.8073C7.2893 13.71 7.5173 12.666 7.92863 11.72L7.9093 11.77C8.7073 9.88665 10.176 8.41798 12.0086 7.63932L12.0593 7.61998C13.0062 7.20752 14.0285 6.99638 15.0613 6.99998H15.0826Z" fill="white"/>
</g>
<defs>
<clipPath id="clip0_6_527">
<rect width="16" height="16" fill="white" transform="translate(7 7)"/>
</clipPath>
</defs>
</svg>
